<mxfile host="app.diagrams.net" modified="2023-06-23T07:07:38.194Z" agent="Mozilla/5.0 (Macintosh; Intel Mac OS X 10_15_7) AppleWebKit/537.36 (KHTML, like Gecko) Chrome/112.0.0.0 Safari/537.36 Edg/112.0.1722.64" version="21.5.0" etag="ZmUSvf7HHwgHyvjNYErB" type="github">
  <diagram name="Page-1" id="Xe_4gwDoeP_Kr8wrqsXp">
    <mxGraphModel>
      <root>
        <mxCell id="0" />
        <mxCell id="1" parent="0" />
      </root>
    </mxGraphModel>
  </diagram>
</mxfile>
